<?xml version="1.0" standalone="no"?><!DOCTYPE svg PUBLIC "-//W3C//DTD SVG 1.1//EN" "http://www.w3.org/Graphics/SVG/1.1/DTD/svg11.dtd"><svg class="icon" width="200px" height="200.00px" viewBox="0 0 1024 1024" version="1.1" xmlns="http://www.w3.org/2000/svg"><path fill="#1296db" d="M882.836957 342.226339c-26.654057-15.728216-51.229778-24.603351-69.825298-29.634948l37.481659-64.916499c15.262612-26.429952 19.296485-57.310264 11.360745-86.940095-7.945973-29.630854-26.877137-54.363142-53.306066-69.615521-26.429952-15.262612-57.310264-19.265786-86.940095-11.360745-29.630854 7.945973-54.363142 26.877137-69.411883 52.940746L506.918261 376.713804c-8.819876 14.815427-3.953032 33.979906 10.852162 42.799782 5.009084 2.976798 10.516518 4.389984 15.943111 4.389984 10.639315 0 21.013593-5.435803 26.856671-15.242146l145.480372-244.38087c6.92983-11.990079 18.189268-20.586874 31.713282-24.214495 13.535271-3.617387 27.578102-1.809205 39.568181 5.111414 24.915459 14.388708 33.481556 46.366004 19.10308 71.281463l-86.280062 149.432381c-8.627495 14.926968-3.505847 34.019815 11.42112 42.637076 14.957667 8.65717 34.019815 3.526313 42.637076-11.42112l16.114003-27.90863c11.342326 1.852184 38.876426 7.964392 70.786183 26.801413 33.553187 19.793812 50.776454 37.323047 45.746904 73.222675-20.932752 149.879566-79.167061 246.209518-183.310979 303.173904-1.585101 0.873903-3.231601 1.706875-4.88731 2.550079-12.488429 6.401804-35.747155 18.311041-40.147372 46.600341-8.566096 54.983265-38.684044 59.270918-100.56644 63.11241l-2.367931 0.14224c-43.602054 2.753717-91.726098 1.086751-147.075707-5.131881-44.527123-5.009084-55.18588-20.74958-58.559721-46.285163-4.958942-37.220716-32.628118-52.188616-49.170886-61.130266-2.397606-1.300622-4.806469-2.601244-7.133468-3.953032C205.420533 710.880583 149.737326 616.939027 128.398322 472.65797c-5.700839-38.633902 9.003048-62.187341 49.170886-78.760808 131.345444-54.190203 259.256672-48.154743 260.445754-48.113811 17.457604 1.25969 31.937386-12.234649 32.881898-29.447682 0.954745-17.213034-12.234649-31.937386-29.447682-32.881898-5.791913-0.356111-142.747121-7.072069-287.698444 52.726875-84.613096 34.914184-94.073562 98.44308-87.113033 145.602146 24.000624 162.256454 91.218538 273.614681 205.533097 340.435553 2.926656 1.706875 5.92392 3.332908 8.901741 4.948709 15.536858 8.403391 16.400528 10.04989 16.97972 14.428617 7.773034 58.833967 45.949518 92.51916 113.481587 100.119255 40.553625 4.542456 77.633125 6.797823 112.201431 6.797823 15.739473 0 30.961152-0.467651 45.74588-1.401929l2.337231-0.14224c55.82647-3.464915 139.891074-8.677637 157.816329-112.405069 2.032286-1.249457 5.192256-2.865257 7.478322-4.044106 2.194992-1.11745 4.369517-2.235924 6.432503-3.373841 121.214712-66.292845 191.582363-180.547029 215.135802-349.265662C970.468806 393.927861 909.064294 357.701798 882.836957 342.226339z"  /><path fill="#1296db" d="M793.072537 458.238562c-3.8814-16.786315-20.677948-27.191292-37.434587-23.381523-0.86367 0.203638-88.840374 20.048615-243.150856 20.048615-153.690358 0-241.575987-19.692504-243.13039-20.048615-16.755616-3.871167-33.553187 6.554276-37.455053 23.340591-3.9121 16.786315 6.53381 33.57263 23.330358 37.47552 3.800559 0.884137 94.988398 21.664416 257.255085 21.664416 162.27692 0 253.464759-20.780279 257.265318-21.664416C786.528494 491.771283 796.953937 475.014644 793.072537 458.238562z"  /><path fill="#1296db" d="M397.62302 559.15088c-17.243733 0-31.215956 13.972223-31.215956 31.215956l0 28.716019c0 17.243733 13.972223 31.215956 31.215956 31.215956s31.215956-13.972223 31.215956-31.215956l0-28.716019C428.838975 573.123103 414.866752 559.15088 397.62302 559.15088z"  /><path fill="#1296db" d="M627.340935 559.15088c-17.243733 0-31.215956 13.972223-31.215956 31.215956l0 28.716019c0 17.243733 13.972223 31.215956 31.215956 31.215956s31.215956-13.972223 31.215956-31.215956l0-28.716019C658.55689 573.123103 644.584668 559.15088 627.340935 559.15088z"  /><path fill="#1296db" d="M512.192382 781.755794c42.200124 0 72.084759-29.081339 83.089393-46.264697 9.206686-14.378475 5.02955-33.298384-9.215896-42.698474-14.277168-9.429767-33.542954-5.406127-43.135426 8.68787-0.121773 0.183172-12.346189 17.84339-30.738072 17.84339-17.822924 0-29.061896-16.258289-29.853935-17.447371-9.18622-14.409175-28.258601-18.768459-42.799782-9.744945-14.642488 9.104355-19.144012 28.350698-10.04989 42.992163C440.249863 752.440118 469.769176 781.755794 512.192382 781.755794z"  /></svg>